<svg width="800" height="800" viewBox="0 0 800 800" fill="none" xmlns="http://www.w3.org/2000/svg">
<path fill-rule="evenodd" clip-rule="evenodd" d="M333.332 66.6666C314.923 66.6666 299.999 81.5906 299.999 100V152.726C276.824 162.106 255.281 174.641 235.901 189.788L190.191 163.398C182.535 158.977 173.436 157.779 164.897 160.067C156.358 162.356 149.077 167.942 144.657 175.598L77.9904 291.068C68.7857 307.011 74.248 327.398 90.191 336.603L135.885 362.983C134.201 375.093 133.332 387.453 133.332 400C133.332 412.547 134.201 424.903 135.885 437.017L90.1914 463.397C82.535 467.817 76.9487 475.097 74.6604 483.637C72.3724 492.177 73.57 501.273 77.9904 508.93L144.657 624.4C149.077 632.057 156.358 637.643 164.897 639.933C173.437 642.22 182.535 641.023 190.191 636.603L235.902 610.21C255.282 625.357 276.824 637.893 299.999 647.273V700C299.999 718.41 314.923 733.333 333.332 733.333H466.667C485.073 733.333 500 718.41 500 700V647.273C523.173 637.893 544.717 625.357 564.097 610.21L609.807 636.603C617.463 641.023 626.56 642.22 635.1 639.933C643.64 637.643 650.92 632.057 655.34 624.403L722.007 508.933C726.427 501.277 727.627 492.177 725.337 483.637C723.05 475.1 717.463 467.817 709.807 463.397L664.113 437.017C665.797 424.907 666.667 412.547 666.667 400C666.667 387.453 665.797 375.093 664.113 362.983L709.807 336.603C725.75 327.397 731.213 307.011 722.007 291.068L655.34 175.598C650.92 167.941 643.64 162.355 635.1 160.067C626.56 157.779 617.463 158.976 609.807 163.397L564.097 189.788C544.717 174.641 523.173 162.106 500 152.726V100C500 81.5906 485.073 66.6666 466.667 66.6666H333.332ZM366.667 176.329V133.333H433.333V176.329C433.333 191.076 443.023 204.07 457.157 208.277C487.527 217.316 514.917 233.399 537.41 254.676C548.12 264.808 564.213 266.7 576.983 259.328L614.273 237.798L647.607 295.533L610.363 317.036C597.603 324.402 591.193 339.27 594.597 353.603C598.123 368.46 600 383.99 600 400C600 416.01 598.123 431.54 594.597 446.397C591.193 460.73 597.603 475.597 610.363 482.963L647.607 504.467L614.273 562.2L576.98 540.67C564.213 533.3 548.12 535.19 537.407 545.323C514.917 566.6 487.527 582.683 457.157 591.72C443.023 595.927 433.333 608.923 433.333 623.67V666.667H366.667V623.67C366.667 608.923 356.973 595.927 342.84 591.72C312.47 582.683 285.082 566.6 262.589 545.323C251.878 535.19 235.784 533.3 223.016 540.67L185.725 562.2L152.392 504.467L189.635 482.963C202.393 475.597 208.803 460.73 205.4 446.397C201.874 431.54 199.999 416.01 199.999 400C199.999 383.99 201.873 368.46 205.4 353.603C208.803 339.27 202.393 324.402 189.635 317.036L152.392 295.534L185.725 237.799L223.015 259.329C235.784 266.7 251.878 264.808 262.589 254.677C285.082 233.4 312.47 217.316 342.84 208.277C356.973 204.07 366.667 191.076 366.667 176.329ZM333.333 400C333.333 363.18 363.18 333.333 400 333.333C436.82 333.333 466.667 363.18 466.667 400C466.667 436.82 436.82 466.667 400 466.667C363.18 466.667 333.333 436.82 333.333 400ZM400 266.667C326.361 266.667 266.666 326.362 266.666 400C266.666 473.637 326.361 533.333 400 533.333C473.637 533.333 533.333 473.637 533.333 400C533.333 326.362 473.637 266.667 400 266.667Z" fill="white"/>
</svg>
