<svg width="40" height="40" viewBox="0 0 40 40" fill="none" xmlns="http://www.w3.org/2000/svg">
<g clip-path="url(#clip0_1_27)">
<path d="M20 39.9685C31.037 39.9685 39.9843 31.0213 39.9843 19.9843C39.9843 8.94726 31.037 0 20 0C8.96301 0 0.0157471 8.94726 0.0157471 19.9843C0.0157471 31.0213 8.96301 39.9685 20 39.9685Z" fill="#0D0E11"/>
<path d="M24.1857 39.1503V24.4847C23.9024 24.2958 23.6507 24.0126 23.5248 23.6979C23.4304 23.509 23.3674 23.2887 23.3359 23.037L23.0212 18.8198H16.9787L16.7584 21.9984L16.6955 23.037C16.664 23.6664 16.2864 24.2014 15.7828 24.5161V39.1188H24.1857V39.1503Z" fill="white"/>
<path d="M23.5247 23.6979C18.4579 27.6947 16.7899 22.1873 16.7584 21.9984L16.9787 18.8198H23.0527L23.3674 23.037C23.3674 23.2887 23.3989 23.509 23.5247 23.6979Z" fill="#E6E9EE"/>
<path d="M20 20.3304C23.7022 20.3304 26.7034 17.3715 26.7034 13.7215C26.7034 10.0714 23.7022 7.1125 20 7.1125C16.2978 7.1125 13.2966 10.0714 13.2966 13.7215C13.2966 17.3715 16.2978 20.3304 20 20.3304Z" fill="#2B3B4E"/>
<path d="M26.672 15.1062C26.4202 14.9803 26.1055 15.0433 25.7908 15.2636C25.7908 15.1377 25.7908 15.0118 25.7908 14.8859C25.7908 10.9205 23.1786 9.47285 20 9.47285C16.79 9.47285 14.2093 10.9205 14.2093 14.8859C14.2093 15.0118 14.2093 15.1377 14.2093 15.2636C13.8946 15.0433 13.5799 14.9489 13.3281 15.1062C12.8246 15.3895 12.7616 16.3336 13.1708 17.2777C13.5799 18.1904 14.3037 18.7569 14.8073 18.4736C15.7514 21.3375 17.7341 23.8238 20 23.8238C22.266 23.8238 24.2172 21.3375 25.1928 18.4736C25.6963 18.7254 26.4202 18.1904 26.8293 17.2777C27.2384 16.3336 27.144 15.358 26.672 15.1062Z" fill="white"/>
<path d="M16.0661 25.177C16.0661 25.177 19.1503 29.646 23.9024 25.177C23.9024 25.177 24.7836 30.5901 19.9685 38.867C20 38.867 13.989 27.8206 16.0661 25.177Z" fill="#625E54"/>
<path d="M34.5082 33.7372C34.5082 29.2683 32.4626 27.978 31.2038 27.6318C30.1337 27.3171 29.0952 26.9709 28.1196 26.4674C25.6648 25.2085 24.1542 24.3273 23.9024 24.107C23.9024 24.107 23.9024 24.107 23.8709 24.0755C23.6821 23.8552 23.5562 23.7608 23.5248 23.7294C23.6192 23.9182 24.878 26.4044 22.9898 30.4957C22.9898 30.4957 21.3847 35.122 20.0315 38.8356C18.6782 35.122 17.0732 30.4957 17.0732 30.4957C15.1849 26.4044 16.4437 23.8867 16.5381 23.7294C16.5067 23.7608 16.3808 23.8867 16.192 24.0755C16.192 24.0755 16.192 24.0755 16.1605 24.107C15.8772 24.3273 14.3981 25.2085 11.9433 26.4674C10.9992 26.9394 10.0236 27.3486 9.01651 27.6318C7.75765 27.978 5.52319 29.2054 5.52319 33.7687C9.07945 37.5138 14.0834 39.8741 19.6223 40C19.6853 40 20.3776 40 20.4406 40C25.9481 39.8427 30.952 37.4823 34.5082 33.7372Z" fill="black"/>
<path d="M20 19.6381C18.8985 19.0716 18.4579 20.7711 16.6956 19.7954C16.6956 19.7954 17.3879 21.7152 20 20.5508C22.6122 21.6837 23.3045 19.7954 23.3045 19.7954C21.5421 20.7711 21.1015 19.0716 20 19.6381Z" fill="#324A5E"/>
<path d="M13.7687 9.91345H26.2628C27.4902 9.44138 28.4658 8.78048 28.8435 8.02517C29.9135 5.85366 26.074 3.65067 20.0315 3.65067C13.9576 3.65067 10.1495 5.85366 11.2196 8.02517C11.5657 8.78048 12.5099 9.44138 13.7687 9.91345Z" fill="#FFD05B"/>
<path d="M13.7687 9.91345C17.7655 8.62313 22.2659 8.62313 26.2628 9.91345C26.2628 10.4799 26.2628 11.0464 26.2628 11.6444C22.1086 11.6444 17.9229 11.6444 13.7687 11.6444C13.7687 11.0464 13.7687 10.4799 13.7687 9.91345Z" fill="#F9B54C"/>
<path d="M26.2628 11.3611C26.2628 12.9976 23.4618 14.3194 20 14.3194C16.5381 14.3194 13.7372 12.9976 13.7372 11.3926C13.7372 11.3926 16.5381 11.487 20 11.487C23.4618 11.4555 26.2628 11.3611 26.2628 11.3611Z" fill="#FFD05B"/>
<path d="M18.3321 5.22423H17.1991V6.35719H18.3321V5.22423Z" fill="#324A5E"/>
<path d="M19.465 6.35719H18.332V7.49016H19.465V6.35719Z" fill="#324A5E"/>
<path d="M20.5666 5.22423H19.4336V6.35719H20.5666V5.22423Z" fill="#324A5E"/>
<path d="M22.8009 5.22423H21.668V6.35719H22.8009V5.22423Z" fill="#324A5E"/>
<path d="M21.6995 6.35719H20.5665V7.49016H21.6995V6.35719Z" fill="#324A5E"/>
</g>
<defs>
<clipPath id="clip0_1_27">
<rect width="40" height="40" fill="white"/>
</clipPath>
</defs>
</svg>
